PathFileType	4	(X/Y/Z)	D:\telocate\uwb02-Unnamed.trc
DataRate	CameraRate	NumFrames	NumMarkers	Units	OrigDataRate	OrigDataStartFrame	OrigNumFrames
100.00	100.00	      229	0	mm	100.00	2274	      4547
Frame#	Time	
		

2274	22.730	-1418.39087	-2445.97437	1257.07336	
2275	22.740	-1417.84058	-2446.24316	1257.08167	
2276	22.750	-1417.82507	-2446.69434	1256.82983	
2277	22.760	-1417.48889	-2447.56177	1256.50391	
2278	22.770	-1416.70264	-2448.29321	1256.76477	
2279	22.780	-1416.48718	-2448.50562	1256.85632	
2280	22.790	-1416.09326	-2448.83008	1256.55750	
2281	22.800	-1415.81665	-2449.39722	1256.32605	
2282	22.810	-1415.57397	-2449.76440	1256.30725	
2283	22.820	-1415.31189	-2449.98364	1256.30396	
2284	22.830	-1414.29944	-2450.44727	1256.60205	
2285	22.840	-1414.04541	-2451.14038	1256.78223	
2286	22.850	-1413.42395	-2451.48047	1256.63000	
2287	22.860	-1413.25415	-2451.97632	1256.48962	
2288	22.870	-1412.89270	-2452.23950	1256.51721	
2289	22.880	-1412.63977	-2453.54224	1256.87000	
2290	22.890	-1411.75171	-2453.88403	1256.92517	
2291	22.900	-1411.40759	-2454.48804	1256.83752	
2292	22.910	-1410.92346	-2454.78418	1256.69067	
2293	22.920	-1410.56873	-2454.79272	1256.44153	
2294	22.930	-1409.82080	-2454.87988	1256.73315	
2295	22.940	-1409.35254	-2455.12988	1256.77722	
2296	22.950	-1408.69141	-2455.10254	1256.63171	
2297	22.960	-1407.88489	-2455.08325	1256.72668	
2298	22.970	-1407.39258	-2455.19116	1256.65674	
2299	22.980	-1407.03210	-2455.23633	1256.67126	
2300	22.990	-1406.76147	-2455.34277	1256.56677	
2301	23.000	-1405.76147	-2455.16040	1256.65039	
2302	23.010	-1405.50146	-2455.14722	1256.74878	
2303	23.020	-1405.26648	-2455.13525	1256.67651	
2304	23.030	-1405.10400	-2455.11206	1256.67114	
2305	23.040	-1404.83594	-2455.23438	1256.66736	
2306	23.050	-1404.69714	-2455.27734	1256.68970	
2307	23.060	-1404.61633	-2455.45190	1256.64917	
2308	23.070	-1404.50146	-2455.46289	1256.68091	
2309	23.080	-1404.47644	-2455.56372	1256.63428	
2310	23.090	-1404.53406	-2456.77246	1256.89746	
2311	23.100	-1404.54089	-2456.87573	1256.84570	
2312	23.110	-1404.33740	-2457.16309	1257.26733	
2313	23.120	-1404.59424	-2457.44702	1257.08093	
2314	23.130	-1404.58264	-2457.85938	1257.37402	
2315	23.140	-1404.59534	-2458.01978	1257.29761	
2316	23.150	-1404.77686	-2458.28223	1257.34595	
2317	23.160	-1404.84509	-2458.46118	1257.38562	
2318	23.170	-1405.11316	-2459.27051	1257.15576	
2319	23.180	-1405.17700	-2459.39307	1257.12512	
2320	23.190	-1405.21484	-2459.64258	1257.19287	
2321	23.200	-1405.50085	-2459.43042	1256.95215	
2322	23.210	-1405.57776	-2459.47510	1256.97070	
2323	23.220	-1405.69910	-2459.57031	1256.86047	
2324	23.230	-1405.77832	-2459.51904	1256.91406	
2325	23.240	-1405.82312	-2459.44385	1256.90283	
2326	23.250	-1405.98840	-2459.63379	1257.10974	
2327	23.260	-1405.98450	-2459.34009	1257.00891	
2328	23.270	-1406.05542	-2459.50928	1257.09338	
2329	23.280	-1406.23584	-2459.60767	1257.07422	
2330	23.290	-1406.34424	-2459.53296	1256.96655	
2331	23.300	-1407.16309	-2460.21997	1257.00891	
2332	23.310	-1407.30554	-2460.09766	1256.88025	
2333	23.320	-1407.51648	-2460.16992	1256.90283	
2334	23.330	-1407.71973	-2460.30273	1256.83313	
2335	23.340	-1408.36206	-2460.52124	1256.88904	
2336	23.350	-1408.47021	-2460.50000	1256.93079	
2337	23.360	-1408.61829	-2460.50708	1256.90515	
2338	23.370	-1408.66406	-2460.46143	1256.89392	
2339	23.380	-1408.77722	-2460.48120	1256.91235	
2340	23.390	-1409.09143	-2460.06958	1256.78357	
2341	23.400	-1409.14038	-2460.17822	1256.96680	
2342	23.410	-1409.31384	-2460.00635	1256.73022	
2343	23.420	-1409.44763	-2460.17432	1256.87549	
2344	23.430	-1409.54980	-2460.11572	1256.80371	
2345	23.440	-1409.64429	-2460.11084	1256.88196	
2346	23.450	-1409.68860	-2460.08057	1256.94983	
2347	23.460	-1409.66406	-2460.11206	1256.82178	
2348	23.470	-1409.82837	-2460.02051	1257.00684	
2349	23.480	-1409.88025	-2459.88696	1256.98755	
2350	23.490	-1409.86572	-2460.00537	1256.84509	
2351	23.500	-1409.88745	-2460.03198	1256.89673	
2352	23.510	-1409.90479	-2459.74146	1256.94031	
2353	23.520	-1410.04382	-2459.69238	1256.83618	
2354	23.530	-1410.26648	-2459.38867	1256.67822	
2355	23.540	-1410.26392	-2459.15186	1256.79431	
2356	23.550	-1410.25232	-2459.07300	1256.75879	
2357	23.560	-1409.76489	-2459.02002	1256.88513	
2358	23.570	-1410.20044	-2459.00293	1256.79382	
2359	23.580	-1410.16211	-2458.99731	1256.67676	
2360	23.590	-1409.99023	-2458.79102	1256.84558	
2361	23.600	-1409.90210	-2458.69214	1256.79065	
2362	23.610	-1409.80579	-2458.63770	1256.75684	
2363	23.620	-1409.27563	-2458.44092	1257.00073	
2364	23.630	-1409.25110	-2458.37915	1256.97021	
2365	23.640	-1409.32495	-2458.07031	1256.75793	
2366	23.650	-1409.19226	-2458.26709	1257.02869	
2367	23.660	-1409.75488	-2457.96802	1256.67505	
2368	23.670	-1409.19800	-2456.82422	1256.51086	
2369	23.680	-1409.61353	-2456.72314	1256.41296	
2370	23.690	-1409.43237	-2456.48608	1256.34766	
2371	23.700	-1408.79871	-2456.24707	1256.43994	
2372	23.710	-1408.65137	-2456.08911	1256.47156	
2373	23.720	-1409.05786	-2456.01025	1256.36145	
2374	23.730	-1408.04224	-2455.78564	1256.40637	
2375	23.740	-1407.95752	-2455.69019	1256.44055	
2376	23.750	-1407.85632	-2455.50391	1256.51892	
2377	23.760	-1407.76941	-2455.38770	1256.55249	
2378	23.770	-1407.70728	-2455.24390	1256.57861	
2379	23.780	-1407.60522	-2455.20093	1256.57483	
2380	23.790	-1407.42590	-2454.89966	1256.62610	
2381	23.800	-1407.26855	-2454.75439	1256.68286	
2382	23.810	-1407.03638	-2454.46899	1256.55945	
2383	23.820	-1406.90137	-2454.57471	1256.78992	
2384	23.830	-1406.70117	-2454.21973	1256.90002	
2385	23.840	-1406.33984	-2453.77271	1256.81250	
2386	23.850	-1406.24805	-2453.63525	1256.82520	
2387	23.860	-1406.13086	-2453.43823	1256.88538	
2388	23.870	-1406.00220	-2453.10986	1256.84265	
2389	23.880	-1405.24121	-2452.65674	1256.86243	
2390	23.890	-1405.15051	-2452.28613	1256.98474	
2391	23.900	-1405.17529	-2452.07373	1256.88379	
2392	23.910	-1404.88110	-2451.99292	1257.07434	
2393	23.920	-1404.94849	-2450.85791	1256.79175	
2394	23.930	-1404.67004	-2450.31006	1256.85620	
2395	23.940	-1404.63574	-2450.15308	1256.83447	
2396	23.950	-1404.56323	-2449.93384	1256.82678	
2397	23.960	-1404.52991	-2449.83276	1256.84961	
2398	23.970	-1404.50037	-2449.77295	1256.82166	
2399	23.980	-1404.47717	-2449.74829	1256.83728	
2400	23.990	-1404.41577	-2449.76074	1256.81360	
2401	24.000	-1404.36719	-2449.70703	1256.81079	
2402	24.010	-1404.27454	-2449.65332	1256.82483	
2403	24.020	-1404.14075	-2449.53833	1256.86304	
2404	24.030	-1404.07666	-2449.51831	1256.84192	
2405	24.040	-1404.06580	-2449.46777	1256.87256	
2406	24.050	-1404.05237	-2449.48413	1256.87378	
2407	24.060	-1404.04504	-2449.52124	1256.86670	
2408	24.070	-1404.08411	-2449.59033	1256.88269	
2409	24.080	-1404.13025	-2449.57764	1256.92664	
2410	24.090	-1404.27490	-2449.60205	1256.87024	
2411	24.100	-1404.32996	-2449.52881	1256.85413	
2412	24.110	-1404.35205	-2449.52734	1256.85681	
2413	24.120	-1404.43372	-2449.43823	1256.87439	
2414	24.130	-1404.45691	-2449.40967	1256.90637	
2415	24.140	-1404.48059	-2449.47510	1256.87390	
2416	24.150	-1404.53271	-2449.38574	1256.94507	
2417	24.160	-1404.60010	-2449.28052	1256.91858	
2418	24.170	-1404.80566	-2449.13013	1256.71448	
2419	24.180	-1404.95422	-2448.99487	1256.77466	
2420	24.190	-1405.62366	-2448.95068	1256.88770	
2421	24.200	-1405.94202	-2448.77246	1256.90405	
2422	24.210	-1406.88245	-2448.48511	1256.72339	
2423	24.220	-1407.36597	-2448.27734	1256.62695	
2424	24.230	-1407.80029	-2448.09009	1256.67749	
2425	24.240	-1408.00830	-2447.85083	1256.66943	
2426	24.250	-1407.78711	-2448.16479	1256.69409	
2427	24.260	-1407.53442	-2448.34790	1256.65271	
2428	24.270	-1407.21057	-2448.43384	1256.69580	
2429	24.280	-1407.08899	-2448.62524	1256.71289	
2430	24.290	-1407.11304	-2448.75635	1256.72375	
2431	24.300	-1407.23828	-2448.75488	1256.70862	
2432	24.310	-1407.55774	-2448.61792	1256.65747	
2433	24.320	-1408.08752	-2448.52637	1256.71460	
2434	24.330	-1408.71594	-2448.62988	1256.97620	
2435	24.340	-1409.01086	-2448.24951	1256.60522	
2436	24.350	-1409.22107	-2448.25024	1256.53479	
2437	24.360	-1409.29993	-2448.19189	1256.65405	
2438	24.370	-1409.25476	-2448.24878	1256.64844	
2439	24.380	-1409.07764	-2448.39355	1256.74512	
2440	24.390	-1408.72815	-2448.68286	1256.69934	
2441	24.400	-1408.59900	-2448.93262	1256.74182	
2442	24.410	-1408.58618	-2449.12354	1256.71472	
2443	24.420	-1408.72058	-2449.37427	1256.73425	
2444	24.430	-1408.99609	-2449.57837	1256.69324	
2445	24.440	-1409.56226	-2449.99561	1256.96985	
2446	24.450	-1409.73511	-2449.97778	1256.66492	
2447	24.460	-1410.69702	-2450.59888	1256.89771	
2448	24.470	-1410.87842	-2450.80322	1256.86768	
2449	24.480	-1410.95190	-2451.32349	1256.86487	
2450	24.490	-1411.12744	-2451.96265	1256.83374	
2451	24.500	-1411.10730	-2452.15967	1256.69861	
2452	24.510	-1411.29700	-2453.18628	1256.94568	
2453	24.520	-1411.40356	-2453.33057	1256.91724	
2454	24.530	-1411.45740	-2453.46509	1257.01282	
2455	24.540	-1411.63147	-2453.76440	1256.90527	
2456	24.550	-1411.75366	-2453.85498	1256.91492	
2457	24.560	-1412.12854	-2453.96167	1256.85376	
2458	24.570	-1412.77454	-2454.05908	1256.67004	
2459	24.580	-1413.16736	-2454.17822	1256.51111	
2460	24.590	-1413.34998	-2454.21997	1256.54395	
2461	24.600	-1413.52417	-2454.23975	1256.47241	
2462	24.610	-1413.74634	-2454.63306	1256.34521	
2463	24.620	-1414.48657	-2455.03809	1256.38489	
2464	24.630	-1414.66663	-2455.24805	1256.40796	
2465	24.640	-1414.73608	-2455.17993	1256.40991	
2466	24.650	-1414.91858	-2455.34229	1256.43848	
2467	24.660	-1415.10986	-2455.52710	1256.81946	
2468	24.670	-1415.16553	-2455.64844	1256.75793	
2469	24.680	-1415.48450	-2455.86377	1256.78174	
2470	24.690	-1415.64819	-2455.99219	1256.79517	
2471	24.700	-1415.84534	-2456.28101	1256.70227	
2472	24.710	-1416.44153	-2456.39868	1256.81458	
2473	24.720	-1417.24377	-2456.65405	1257.05127	
2474	24.730	-1417.24524	-2456.81714	1257.09326	
2475	24.740	-1417.27966	-2456.84888	1257.10620	
2476	24.750	-1417.38818	-2456.94409	1257.22693	
2477	24.760	-1417.24292	-2456.95288	1257.26904	
2478	24.770	-1416.24536	-2456.71777	1256.79236	
2479	24.780	-1415.74927	-2456.63721	1256.84192	
2480	24.790	-1415.63562	-2456.70679	1256.85352	
2481	24.800	-1415.46997	-2456.77197	1256.84839	
2482	24.810	-1415.15295	-2456.64746	1256.77747	
2483	24.820	-1415.01563	-2456.48462	1256.70715	
2484	24.830	-1414.85498	-2456.60400	1256.77710	
2485	24.840	-1414.60120	-2456.38623	1256.67126	
2486	24.850	-1413.76160	-2455.81128	1256.12793	
2487	24.860	-1413.49487	-2455.67822	1256.14783	
2488	24.870	-1412.78796	-2455.71411	1256.36194	
2489	24.880	-1412.38000	-2455.45166	1256.38464	
2490	24.890	-1412.00720	-2455.24194	1256.42480	
2491	24.900	-1411.43726	-2455.11255	1256.34021	
2492	24.910	-1411.02051	-2455.01953	1256.24585	
2493	24.920	-1410.64893	-2455.17969	1256.57520	
2494	24.930	-1410.02112	-2454.85352	1256.72192	
2495	24.940	-1408.83020	-2454.46875	1256.87878	
2496	24.950	-1408.20898	-2454.09058	1256.91028	
2497	24.960	-1406.82410	-2453.59033	1256.94958	
2498	24.970	-1406.36047	-2452.60107	1257.12878	
2499	24.980	-1405.15088	-2452.04907	1257.02673	
2500	24.990	-1404.86694	-2451.79541	1257.15820	
2501	25.000	-1404.37488	-2451.29590	1257.27588	
2502	25.010	-1403.91711	-2449.96436	1256.97241	
